# xmcd
#
# Track frame offsets:
#	150
#	14495
#	27880
#	45043
#	61224
#	78086
#	90364
#	105410
#	117091
#	133682
#	152606
#	169893
#	184783
#	197732
#	212494
#	228470
#	248271
#	259615
#	275270
#	290580
#	303275
#	318659
#	335989
#
# Disc length: 4719
#
# Revision: 1
# Processed by: cddbd v1.5.1PL0 Copyright (c) Steve Scherf et al.
# Submitted via: dBpowerAMP V4.0
# Normalized: r0:DSETVAR1
#
DISCID=2b126d17
DTITLE=Various Artist - The 4 box volume 11 cd2
DYEAR=1900
DGENRE=Acid Jazz
TTITLE0=Dj tiesto - Just be
TTITLE1=Magnolia - It´s all vain
TTITLE2=Christina Milian - Whatever u want
TTITLE3=Joss Stone - You had me
TTITLE4=Nelly Furtado - Explode
TTITLE5=Brad carter - Morning always comes too soon
TTITLE6=Dirty Laundry - Calabria
TTITLE7=Dj jean - Every single day
TTITLE8=A chi li pu - Ragga pu
TTITLE9=Terror squad - Lean back
TTITLE10=Robbie Williams - Radio
TTITLE11=Duran duran - (Reach up for the) sunrise
TTITLE12=Stellar Project - Get up,Stand up
TTITLE13=Scooter - Shake that!
TTITLE14=Belle Perez - El Ritmo Caliente
TTITLE15=Sugababes - Caught in a moment
TTITLE16=Tejo,Black alien and Speed - Follow me,Follow me
TTITLE17=Rimini project - A day in the sun
TTITLE18=Sylver - Love is an angel
TTITLE19=DW project - Summer rythm
TTITLE20=Frans Bauer - Had ik maar nooit...
TTITLE21=Maud - Zoals je naar me kijkt
TTITLE22=Andre hazes - Zij geloofd in mij
EXTD=
EXTT0=
EXTT1=
EXTT2=
EXTT3=
EXTT4=
EXTT5=
EXTT6=
EXTT7=
EXTT8=
EXTT9=
EXTT10=
EXTT11=
EXTT12=
EXTT13=
EXTT14=
EXTT15=
EXTT16=
EXTT17=
EXTT18=
EXTT19=
EXTT20=
EXTT21=
EXTT22=
PLAYORDER=
